<svg width="40" height="24" viewBox="0 0 40 24" fill="none" xmlns="http://www.w3.org/2000/svg">
<path fill-rule="evenodd" clip-rule="evenodd" d="M2 0C0.895431 0 0 0.895431 0 2C0 3.10457 0.895431 4 2 4H38C39.1046 4 40 3.10457 40 2C40 0.895431 39.1046 0 38 0H2ZM0 12C0 10.8954 0.895431 10 2 10H38C39.1046 10 40 10.8954 40 12C40 13.1046 39.1046 14 38 14H2C0.895431 14 0 13.1046 0 12ZM0 22C0 20.8954 0.895431 20 2 20H38C39.1046 20 40 20.8954 40 22C40 23.1046 39.1046 24 38 24H2C0.895431 24 0 23.1046 0 22Z" fill="#24B4E6"/>
</svg>
